<svg width="current" height="current" viewBox="0 0 20 21" fill="none" xmlns="http://www.w3.org/2000/svg">
<path fill-rule="evenodd" clip-rule="evenodd" d="M9.99959 4.78808L3.01895 8.58313L9.99963 12.3791L16.9803 8.58402L9.99959 4.78808ZM9.41262 3.39986C9.59156 3.30271 9.79275 3.25024 9.99961 3.25024C10.2065 3.25024 10.4077 3.30271 10.5866 3.39986L17.9912 7.4263C18.2048 7.54261 18.376 7.71654 18.4918 7.92047C18.6039 8.11786 18.6626 8.33966 18.666 8.56299C18.6662 8.56993 18.6663 8.57691 18.6663 8.5839V13.5839H17.1663V10.1902L15.7404 10.9654C15.7465 11.004 15.7497 11.0436 15.7497 11.0839V15.6672C15.7497 15.9513 15.5892 16.211 15.3351 16.3381L10.3351 18.8381C10.124 18.9436 9.87547 18.9436 9.66432 18.8381L4.66436 16.3381C4.41028 16.211 4.24977 15.9513 4.24977 15.6672V11.0839C4.24977 11.0434 4.25298 11.0037 4.25915 10.965L2.00806 9.74086C1.79444 9.62454 1.62323 9.45062 1.5074 9.24669C1.39177 9.04309 1.33301 8.81353 1.33301 8.58311C1.33301 8.35269 1.39177 8.12313 1.5074 7.91954C1.62323 7.71561 1.79408 7.54188 2.00769 7.42557L9.41262 3.39986ZM10.587 13.7671L14.2497 11.7758V15.2037L9.99973 17.3287L5.74976 15.2037V11.7755L9.41217 13.767C9.5911 13.8642 9.79274 13.9169 9.99961 13.9169C10.2065 13.9169 10.4081 13.8642 10.587 13.7671Z" fill="current"/>
</svg>
